<?xml version="1.0" encoding="utf-8"?>
<!DOCTYPE svg PUBLIC "-//W3C//DTD SVG 1.1//EN" "http://www.w3.org/Graphics/SVG/1.1/DTD/svg11.dtd">
<svg version="1.1" xmlns="http://www.w3.org/2000/svg" xmlns:xlink="http://www.w3.org/1999/xlink" x="0px" y="0px"
	 width="278px" height="72px" viewBox="0 0 278 72" enable-background="new 0 0 278 72" xml:space="preserve">
<polygon fill="#335588" points="55.828,51.735 55.828,43.872 67.664,51.735 95.189,51.735 71.573,36 74.415,34.252 100.584,51.735 
	110.756,51.735 110.756,20.321 95.143,20.321 95.143,28.212 83.39,20.321 67.468,20.321 55.828,28.212 55.828,20.265 40.018,30.82 
	40.018,41.152 29.612,34.196 50.611,20.265 24.329,20.265 0.722,36 24.329,51.735 "/>
<polygon fill="#FACD39" points="115.992,51.735 139.609,36 115.992,20.265 116.002,20.265 129.138,20.265 152.764,36 
	129.138,51.735 116.899,51.735 "/>
<path fill="#335588" d="M165.563,34.001c0.04-1.001-0.739-1.845-1.74-1.885c-0.106-0.004-0.212,0.001-0.317,0.015
	c-2.571,0-3.076,2.384-3.076,4.002c-0.05,1.008,0.258,2.002,0.87,2.805c0.638,0.676,1.552,1.021,2.478,0.935
	c0.581,0.032,1.163-0.038,1.72-0.206v-2.216h-2.038v-1.758h4.301v5.264c-1.239,0.422-2.544,0.618-3.852,0.58
	c-2.403,0-3.637-0.58-4.469-1.402c-0.973-1.073-1.477-2.49-1.402-3.936c0-3.74,2.337-5.731,5.526-5.731
	c1.33-0.078,2.631,0.403,3.59,1.328c0.518,0.616,0.788,1.402,0.757,2.206H165.563z"/>
<path fill="#335588" d="M169.808,30.783h2.253v4.535l3.534-4.563h2.637l-3.861,4.675l4.198,5.815h-2.805l-3.74-5.367v5.367h-2.253
	L169.808,30.783z"/>
<path fill="#335588" d="M179.597,30.732h3.272l3.946,8.293v-8.293h2.104v10.537h-3.104l-4.086-8.751v8.751h-2.132V30.732z"/>
<path fill="#335588" d="M199.343,30.732l3.665,10.537h-2.281l-0.757-2.272h-4.17l-0.785,2.272h-2.16l3.805-10.537H199.343z
	 M199.399,37.276l-1.459-4.488l-1.552,4.488H199.399z"/>
<path fill="#335588" d="M204.102,30.75h7.05v1.72h-4.796v2.506h4.497v1.72h-4.497v2.805h4.955v1.748h-7.208V30.75z"/>
<path fill="#335588" d="M212.797,30.765h4.048c1.117-0.163,2.255,0.09,3.198,0.711c0.593,0.507,0.934,1.249,0.935,2.029
	c-0.028,1.292-0.984,2.375-2.263,2.562c1.589,0.14,1.702,1.047,1.87,2.422c0.168,1.374,0.252,1.748,0.327,2.038
	c0.049,0.273,0.157,0.532,0.318,0.757h-2.496c-0.094-0.58-0.421-3.254-0.561-3.656c-0.206-0.598-0.757-0.598-1.141-0.598h-1.982
	v4.254h-2.309L212.797,30.765z M215.032,35.365h1.814c0.405,0.031,0.808-0.071,1.15-0.29c0.387-0.285,0.608-0.744,0.589-1.225
	c0.034-0.464-0.179-0.912-0.561-1.178c-0.456-0.24-0.977-0.328-1.487-0.252h-1.515L215.032,35.365z"/>
<path fill="#335588" d="M227.252,30.491c1.394-0.08,2.755,0.441,3.74,1.43c0.904,1.12,1.378,2.526,1.337,3.964
	c0.048,1.488-0.418,2.947-1.318,4.132c-0.984,0.998-2.339,1.54-3.74,1.496c-1.391,0.05-2.742-0.47-3.74-1.44
	c-0.908-1.105-1.371-2.508-1.3-3.936C222.194,33.333,223.456,30.491,227.252,30.491z M225.382,39.008
	c0.441,0.579,1.144,0.895,1.87,0.841c0.776,0.071,1.529-0.288,1.963-0.935c0.551-0.906,0.803-1.963,0.72-3.02
	c0.009-0.633-0.079-1.264-0.262-1.87c-0.267-1.111-1.269-1.888-2.412-1.87c-0.756-0.009-1.472,0.337-1.935,0.935
	c-1.048,1.867-1.048,4.145,0,6.012L225.382,39.008z"/>
<path fill="#335588" d="M235.442,37.871c-0.158,0.937,0.474,1.824,1.411,1.982c0.167,0.028,0.337,0.031,0.505,0.01
	c1.225,0,1.991-0.58,1.991-1.468c0-0.888-0.654-1.094-1.991-1.412c-2.515-0.626-3.88-1.374-3.88-3.198s1.234-3.263,4.17-3.263
	c1.192-0.091,2.361,0.362,3.179,1.234c0.418,0.563,0.629,1.253,0.598,1.954h-2.141c0.03-0.857-0.64-1.575-1.497-1.605
	c-0.068-0.002-0.137,0-0.205,0.006c-1.047,0-1.739,0.57-1.739,1.43s0.776,1.15,2.291,1.524c1.823,0.439,3.618,0.935,3.618,2.992
	c0,1.87-1.58,3.431-4.488,3.431c-4.039,0-4.076-2.599-4.086-3.618L235.442,37.871z"/>
<path fill="#335588" d="M243.305,30.746h3.254c1.515,0,2.805,0.103,3.656,1.15c0.439,0.558,0.668,1.253,0.645,1.963
	c0.053,1.102-0.453,2.157-1.346,2.805c-0.738,0.38-1.565,0.552-2.393,0.496h-1.524v4.095h-2.291V30.746z M245.53,35.486h0.935
	c0.729,0,2.085,0,2.085-1.608c0-1.43-1.206-1.43-1.87-1.43h-1.141L245.53,35.486z"/>
<path fill="#335588" d="M256.366,30.732l3.665,10.537h-2.281l-0.757-2.272h-4.17l-0.785,2.272h-2.16l3.805-10.537H256.366z
	 M256.432,37.276l-1.459-4.488l-1.561,4.488H256.432z"/>
<path fill="#335588" d="M266.688,34.096c0-0.365-0.168-1.87-1.702-1.87c-1.674,0-2.375,1.748-2.375,3.917
	c0,0.626,0,3.618,2.197,3.618c1.033,0.003,1.872-0.833,1.875-1.865c0-0.045-0.001-0.09-0.005-0.135h2.375
	c0.012,0.914-0.322,1.799-0.935,2.478c-0.817,0.804-1.931,1.234-3.076,1.187c-3.637,0-4.815-2.683-4.815-5.301
	c0-3.338,1.87-5.554,4.824-5.554c2.309,0,3.927,1.402,3.927,3.506L266.688,34.096z"/>
<path fill="#335588" d="M270.559,30.75h7.059v1.72h-4.796v2.506h4.497v1.72h-4.497v2.805h4.955v1.748h-7.208L270.559,30.75z"/>
</svg>
